<?xml version="1.0" encoding="UTF-8" standalone="no"?>
<!DOCTYPE svg PUBLIC "-//W3C//DTD SVG 1.1//EN" "http://www.w3.org/Graphics/SVG/1.1/DTD/svg11.dtd">
<svg width="100%" height="100%" viewBox="0 0 3508 4961" version="1.1" xmlns="http://www.w3.org/2000/svg" xmlns:xlink="http://www.w3.org/1999/xlink" xml:space="preserve" xmlns:serif="http://www.serif.com/" style="fill-rule:evenodd;clip-rule:evenodd;stroke-linejoin:round;stroke-miterlimit:2;">
    <g id="Screenshot-2026-03-07-210805.png" serif:id="Screenshot 2026-03-07 210805.png" transform="matrix(4.902041,0,0,4.902041,550.485834,1049.015876)">
        <path d="M105.587,38.945C119.305,36.004 127.774,36.311 139.5,36.302C354.551,36.125 354.901,35.983 363.534,39.411C416.625,60.493 412.047,106.719 411.977,133.508C411.674,250.798 413.648,333.542 408.981,345.644C387.452,401.459 347.581,396.121 299.5,396.001C118.028,395.549 109.766,399.135 88.566,385.381C50.037,360.382 54.693,329.907 54.849,253.503C55.142,108.976 51.654,85.051 68.222,65.291C86.483,43.513 94.974,43.532 105.587,38.945Z" style="fill:rgb(8,10,11);"/>
        <path d="M311.51,262.502C293.736,340.65 194.414,352.475 174.367,295.556C160.775,256.964 177.093,201.646 164.511,201.43C136.772,200.954 130.206,205.47 132.747,197.525C145.512,157.612 174.311,176.619 191.391,130.45C196.489,116.67 194.844,98.339 209.513,101.425C212.091,101.967 213.519,102.977 212.527,160.5C212.227,177.939 251.719,167.58 259.625,162.72C283.456,148.07 263.285,125.963 277.72,109.714C302.72,81.574 339.549,127.29 308.472,147.45C300.425,152.67 284.077,147.475 270.698,170.598C254.204,199.105 251.436,199.971 218.497,201.397C211.644,201.693 212.7,205.289 212.787,267.499C212.793,271.372 212.839,304.862 244.493,304.075C259.174,303.71 270.161,288.498 270.852,278.541C275.259,215.046 258.392,188.189 304.611,167.795C305.41,167.442 315.277,163.088 315.403,169.505C316.949,248.557 314.216,255.565 311.51,262.502Z" style="fill:rgb(236,232,223);"/>
    </g>
</svg>
